# Blender v2.79 (sub 0) OBJ File: 'Player.blend'
# www.blender.org
mtllib Player.mtl
o Cube
v 1.020259 -0.018856 -4.097211
v 2.571445 -0.018856 -2.438181
v 2.117113 -0.018856 -3.611293
v 2.571445 0.195230 -2.343512
v 2.117113 0.195230 -3.611292
v 2.190477 0.093681 -1.896554
v 0.639291 0.093681 -3.650253
v 1.736145 0.093681 -3.164334
v 2.409183 0.303626 -2.121806
v 1.954852 0.303626 -3.389586
v -2.633394 -0.018856 -2.379836
v -1.027656 -0.018856 -4.097211
v -2.163085 -0.018856 -3.594203
v -2.633394 0.195230 -2.379836
v -2.163085 0.195230 -3.594203
v -0.646687 0.093681 -3.650253
v -2.252426 0.093681 -1.932878
v -1.782116 0.093681 -3.147246
v -2.471133 0.303626 -2.158129
v -2.000823 0.303626 -3.372498
v 1.640107 0.462567 -5.307145
v 1.034795 0.195612 -4.591135
v 1.411890 0.615023 -4.995319
v 0.871962 0.301181 -4.367181
v -1.647504 0.462567 -5.307145
v -1.042680 0.192831 -4.592742
v -1.419286 0.615023 -4.995319
v -0.880571 0.303865 -4.369576
v -0.646687 0.093681 -3.650253
v 1.411890 0.615023 -4.995319
v 0.871962 0.301181 -4.367181
v -1.419286 0.615023 -4.995319
v -0.880571 0.303865 -4.369576
v -0.003698 0.093681 -3.650253
v 1.141926 0.458102 -4.681250
v -1.149929 0.459444 -4.682448
v -0.004304 0.531803 -4.368379
v -0.003698 0.615023 -4.995319
v 0.755627 0.197431 -4.008717
v -0.763629 0.198773 -4.009915
v -0.004001 0.458773 -4.666105
v -0.004001 0.198102 -4.009315
v -0.325193 0.093681 -3.650253
v 0.317797 0.093681 -3.650253
v 1.006944 0.379642 -4.524215
v -1.284608 0.537234 -4.838883
v 0.376342 0.301852 -4.367780
v -0.711492 0.615023 -4.995319
v 0.697459 0.145556 -3.829485
v -0.705158 0.146227 -3.830084
v 1.276908 0.536563 -4.838284
v -1.015249 0.381655 -4.526012
v -0.373122 0.303194 -4.368978
v 0.704096 0.615023 -4.995319
v 0.813794 0.249306 -4.187949
v -0.822100 0.251319 -4.189745
v -0.003850 0.536898 -4.838584
v -0.004153 0.474577 -4.525114
v -0.191894 0.459109 -4.596709
v 0.167018 0.458438 -4.609038
v -0.004153 0.393604 -4.188847
v -0.003850 0.145892 -3.829784
v -0.182546 0.198438 -4.098094
v 0.169534 0.197767 -4.053632
v 0.346805 0.145724 -3.829635
v -0.354504 0.146059 -3.829934
v -0.304363 0.250816 -4.213015
v 0.288000 0.380145 -4.524664
v 0.636529 0.536730 -4.838434
v 0.300520 0.249809 -4.188398
v -0.644229 0.537066 -4.838734
v -0.295254 0.381151 -4.502705
v -1.714607 0.035790 1.278325
v -2.633395 -0.018856 1.727912
v -1.714608 0.177783 1.278325
v -2.633395 0.195230 1.727912
v -2.252427 0.093681 1.280954
v -1.461930 0.110431 0.981879
v -2.471133 0.303626 1.506206
v -1.606987 0.249677 1.131278
v 2.571445 -0.018856 1.729981
v 1.654591 0.035790 1.278325
v 2.571444 0.195230 1.729981
v 1.654591 0.177783 1.278325
v 1.401913 0.110431 0.981879
v 2.190476 0.093681 1.283024
v 1.546970 0.249677 1.131278
v 2.409183 0.303626 1.508276
vt 0.980234 1.000000
vt 0.960451 1.000000
vt 0.960451 0.621078
vt 0.980234 0.621078
vt 0.495128 0.023183
vt 0.495128 0.352591
vt 0.480964 0.369269
vt 0.480964 0.000000
vt 0.803122 0.558163
vt 0.783190 0.487653
vt 0.884235 0.446285
vt 0.902863 0.472632
vt 0.853324 0.073302
vt 0.589497 0.067260
vt 0.575126 0.057262
vt 0.865679 0.063916
vt 0.524291 0.479428
vt 0.538454 0.462750
vt 0.641654 0.554753
vt 0.627523 0.571492
vt 0.900329 0.413391
vt 0.900319 0.418420
vt 0.798962 0.374260
vt 0.800315 0.324346
vt 0.565732 0.041886
vt 0.876113 0.048994
vt 0.407704 0.462251
vt 0.365850 0.575261
vt 0.264804 0.616629
vt 0.146336 0.613916
vt 0.041736 0.566302
vt -0.001590 0.456143
vt -0.001590 0.167233
vt 0.071112 0.196236
vt 0.334938 0.202278
vt 0.407704 0.176421
vt 0.516796 0.038257
vt 0.516796 0.327167
vt 0.637406 0.886116
vt 0.637406 0.592813
vt 0.656806 0.575805
vt 0.656806 0.910665
vt 0.980248 0.124709
vt 0.960451 0.115892
vt 0.961733 0.000000
vt 0.981500 0.000073
vt 0.609720 0.374237
vt 0.608341 0.324242
vt 0.258106 0.851948
vt 0.238543 0.851365
vt 0.244569 0.818395
vt 0.259764 0.824867
vt 0.271327 0.836386
vt 0.279193 0.852917
vt 0.926090 0.333275
vt 0.944718 0.359622
vt 0.960451 0.376985
vt 0.918596 0.489994
vt 0.637406 0.575805
vt 0.637406 0.883454
vt 0.613864 0.863758
vt 0.613864 0.598821
vt 0.771679 0.170874
vt 0.873036 0.215034
vt 0.915019 0.321622
vt 0.915019 0.700320
vt 0.830298 0.657990
vt 0.518960 0.657953
vt 0.434055 0.700073
vt 0.434055 0.326865
vt 0.477515 0.216539
vt 0.582437 0.170851
vt 0.960451 0.500950
vt 0.980234 0.500950
vt 0.560122 0.437326
vt 0.664721 0.484940
vt 0.504798 0.419925
vt 0.504808 0.414895
vt 0.981500 0.500950
vt 0.961733 0.500876
vt 0.703057 0.648943
vt 0.679915 0.631394
vt 0.686770 0.575805
vt 0.703057 0.588563
vt 0.656806 0.602237
vt 0.679915 0.575805
vt 0.679915 0.659631
vt 0.663234 0.678396
vt 0.552463 0.252992
vt 0.856262 0.253029
vt 0.496895 0.648542
vt 0.496913 0.708468
vt 0.480964 0.708273
vt 0.480964 0.642039
vt 0.818887 0.575805
vt 0.261970 0.881427
vt 0.244711 0.888535
vt 0.275280 0.869248
vt 0.596570 0.676246
vt 0.596588 0.709061
vt 0.579311 0.709058
vt 0.571445 0.692528
vt 0.596605 0.741875
vt 0.575398 0.725389
vt 0.613864 0.709063
vt 0.613864 0.739148
vt 0.613864 0.678978
vt 0.226194 0.852083
vt 0.214136 0.852489
vt 0.220269 0.834764
vt 0.230661 0.825427
vt 0.496931 0.768394
vt 0.480965 0.774507
vt 0.514254 0.708631
vt 0.519314 0.724522
vt 0.520387 0.690906
vt 0.559882 0.681008
vt 0.544687 0.674537
vt 0.530779 0.681569
vt 0.480964 0.575805
vt 0.496877 0.588616
vt 0.512790 0.601426
vt 0.528703 0.614237
vt 0.544616 0.627047
vt 0.561928 0.632509
vt 0.579240 0.637971
vt 0.596552 0.643432
vt 0.613864 0.648894
vt 0.562141 0.785603
vt 0.544899 0.791059
vt 0.528916 0.803480
vt 0.512932 0.815900
vt 0.496948 0.828321
vt 0.480964 0.840741
vt 0.528863 0.736200
vt 0.544829 0.744677
vt 0.562087 0.737569
vt 0.613864 0.769233
vt 0.596623 0.774690
vt 0.579382 0.780146
vt 0.980234 0.500950
vt 1.000000 0.501311
vt 0.996671 0.560429
vt 0.983561 0.560189
vt 0.818504 0.793715
vt 0.835343 0.767288
vt 0.835343 0.817029
vt 0.824174 0.834556
vt 0.944718 0.033293
vt 0.960451 0.010795
vt 0.983566 0.844720
vt 0.996676 0.844959
vt 1.000000 0.940947
vt 0.980234 0.940586
vt 0.685863 0.648943
vt 0.697577 0.665697
vt 0.697577 0.714886
vt 0.679915 0.689625
vt 0.228745 0.880058
vt 0.219196 0.868380
vn -1.0000 -0.0000 -0.0000
vn -0.5555 0.8315 -0.0000
vn -0.2095 0.9272 0.3105
vn 0.0000 0.7315 -0.6818
vn -0.2467 0.9284 -0.2780
vn 0.3995 -0.6982 -0.5941
vn -0.0000 0.8984 0.4392
vn 0.0000 1.0000 -0.0032
vn 0.6925 0.7214 0.0000
vn -0.6925 0.7214 -0.0000
vn 0.9344 0.0769 -0.3478
vn 0.0008 -0.9184 -0.3956
vn -0.4019 0.7059 0.5832
vn -0.5623 0.8020 0.2015
vn 0.4049 0.9028 -0.1451
vn 0.0000 0.8984 -0.4392
vn -0.0000 -1.0000 0.0087
vn -0.9325 -0.0000 -0.3611
vn 0.2078 0.9268 0.3127
vn 0.5527 0.8054 0.2141
vn -0.3956 0.9056 -0.1532
vn -0.3947 -0.7028 -0.5919
vn 1.0000 0.0000 0.0000
vn 0.7788 -0.1041 0.6186
vn -0.7784 -0.1040 0.6191
vn 0.0006 -0.9363 -0.3513
vn 0.0001 0.8951 0.4459
vn 0.2431 0.9317 -0.2699
vn 0.3617 0.7432 0.5630
vn -0.0351 0.9761 0.2146
vn 0.0213 0.9702 0.2413
vn 0.0002 0.9603 0.2790
vn 0.0002 0.9601 0.2795
vn -0.3492 0.9366 0.0278
vn 0.0001 0.8949 0.4463
vn -0.0233 0.9406 0.3388
vn 0.0278 0.9451 0.3256
vn -0.0027 0.9229 0.3851
vn 0.0043 0.9224 0.3862
vn 0.4395 0.0000 0.8982
vn -0.3107 0.5259 -0.7918
vn 0.3019 0.7505 0.5879
vn 0.5555 0.8315 0.0000
vn -0.4419 -0.0000 0.8971
vn 0.3137 0.5233 -0.7923
vn -0.3043 0.7488 0.5888
vn -0.0000 -0.0000 1.0000
vn 0.3613 0.9324 0.0092
usemtl None
s off
f 74/1/1 76/2/1 14/3/1 11/4/1
f 79/5/2 19/6/2 14/7/2 76/8/2
f 24/9/3 7/10/3 8/11/3 10/12/3
f 85/13/4 78/14/4 80/15/4 87/16/4
f 15/17/5 20/18/5 28/19/5 26/20/5
f 5/21/6 3/22/6 1/23/6 22/24/6
f 87/16/7 80/15/7 75/25/7 84/26/7
f 6/27/8 8/28/8 7/29/8 16/30/8 18/31/8 17/32/8 77/33/8 78/34/8 85/35/8 86/36/8
f 77/37/9 17/38/9 19/6/9 79/5/9
f 6/39/10 86/40/10 88/41/10 9/42/10
f 4/43/11 2/44/11 3/45/11 5/46/11
f 22/24/12 1/23/12 12/47/12 26/48/12
f 61/49/13 37/50/13 53/51/13 67/52/13 63/53/13 42/54/13
f 10/12/14 8/11/14 6/55/14 9/56/14
f 9/56/15 4/57/15 5/58/15 10/12/15
f 21/59/16 25/60/16 27/61/16 23/62/16
f 1/63/17 3/64/17 2/65/17 81/66/17 82/67/17 73/68/17 74/69/17 11/70/17 13/71/17 12/72/17
f 11/4/18 14/3/18 15/73/18 13/74/18
f 20/18/19 18/75/19 16/76/19 28/19/19
f 19/6/20 17/38/20 18/75/20 20/18/20
f 14/7/21 19/6/21 20/18/21 15/17/21
f 13/77/22 15/78/22 26/48/22 12/47/22
f 2/44/23 4/43/23 83/79/23 81/80/23
f 21/81/24 23/82/24 24/83/24 22/84/24
f 27/85/25 25/86/25 26/87/25 28/88/25
f 25/89/26 21/90/26 22/24/26 26/48/26
f 71/91/27 57/92/27 38/93/27 48/94/27
f 10/12/28 5/58/28 22/95/28 24/9/28
f 70/96/29 47/97/29 37/50/29 61/49/29 42/54/29 64/98/29
f 66/99/30 62/100/30 42/101/30 63/102/30
f 62/100/31 65/103/31 64/104/31 42/101/31
f 34/105/32 44/106/32 65/103/32 62/100/32
f 43/107/33 34/105/33 62/100/33 66/99/33
f 58/108/34 41/109/34 59/110/34 72/111/34 53/51/34 37/50/34
f 57/92/35 69/112/35 54/113/35 38/93/35
f 41/114/36 60/115/36 69/112/36 57/92/36
f 59/116/37 41/114/37 57/92/37 71/91/37
f 66/99/38 63/102/38 67/117/38 53/118/38 72/119/38 59/116/38 71/91/38 48/94/38 32/120/38 46/121/38 36/122/38 52/123/38 33/124/38 56/125/38 40/126/38 50/127/38 29/128/38 43/107/38
f 55/129/39 31/130/39 45/131/39 35/132/39 51/133/39 30/134/39 54/113/39 69/112/39 60/115/39 68/135/39 47/136/39 70/137/39 64/104/39 65/103/39 44/106/39 7/138/39 49/139/39 39/140/39
f 76/141/40 74/142/40 73/143/40 75/144/40
f 77/145/41 79/146/41 80/147/41 78/148/41
f 79/5/42 76/8/42 75/25/42 80/15/42
f 9/56/43 88/149/43 83/150/43 4/57/43
f 84/151/44 82/152/44 81/153/44 83/154/44
f 85/155/45 87/156/45 88/157/45 86/158/45
f 87/16/46 84/26/46 83/150/46 88/149/46
f 82/152/47 84/151/47 75/144/47 73/143/47
f 68/159/48 60/160/48 41/109/48 58/108/48 37/50/48 47/97/48
