# Blender v2.79 (sub 0) OBJ File: 'Player.blend'
# www.blender.org
mtllib player.mtl
o Cube
v 1.020259 -0.018856 -4.097211
v 2.571445 -0.018856 -2.438181
v 2.117113 -0.018856 -3.611293
v 2.571445 0.195230 -2.343512
v 2.117113 0.195230 -3.611292
v 2.190477 0.093681 -1.896554
v 0.639291 0.093681 -3.650253
v 1.736145 0.093681 -3.164334
v 2.409183 0.303626 -2.121806
v 1.954852 0.303626 -3.389586
v -2.633394 -0.018856 -2.379836
v -1.027656 -0.018856 -4.097211
v -2.163085 -0.018856 -3.594203
v -2.633394 0.195230 -2.379836
v -2.163085 0.195230 -3.594203
v -0.646687 0.093681 -3.650253
v -2.252426 0.093681 -1.932878
v -1.782116 0.093681 -3.147246
v -2.471133 0.303626 -2.158129
v -2.000823 0.303626 -3.372498
v 1.640107 0.462567 -5.307145
v 1.034795 0.195612 -4.591135
v 1.411890 0.615023 -4.995319
v 0.871962 0.301181 -4.367181
v -1.647504 0.462567 -5.307145
v -1.042680 0.192831 -4.592742
v -1.419286 0.615023 -4.995319
v -0.880571 0.303865 -4.369576
v 0.639291 0.093681 -5.977309
v -0.646687 0.093681 -3.650253
v 1.411890 0.615023 -4.995319
v 0.871962 0.301181 -4.367181
v -1.419286 0.615023 -4.995319
v -0.880571 0.303865 -4.369576
v -0.003698 0.093681 -3.650253
v 1.141926 0.458102 -4.681250
v -1.149929 0.459444 -4.682448
v -0.004304 0.531803 -4.368379
v -0.003698 0.615023 -4.995319
v 0.755627 0.197431 -4.008717
v -0.763629 0.198773 -4.009915
v -0.004001 0.458773 -4.666105
v -0.004001 0.198102 -4.009315
v -0.325193 0.093681 -3.650253
v 0.317797 0.093681 -3.650253
v 1.006944 0.379642 -4.524215
v -1.284608 0.537234 -4.838883
v 0.376342 0.301852 -4.367780
v -0.711492 0.615023 -4.995319
v 0.697459 0.145556 -3.829485
v -0.705158 0.146227 -3.830084
v 1.276908 0.536563 -4.838284
v -1.015249 0.381655 -4.526012
v -0.373122 0.303194 -4.368978
v 0.704096 0.615023 -4.995319
v 0.813794 0.249306 -4.187949
v -0.822100 0.251319 -4.189745
v -0.003850 0.536898 -4.838584
v -0.004153 0.474577 -4.525114
v -0.191894 0.459109 -4.596709
v 0.167018 0.458438 -4.609038
v -0.004153 0.393604 -4.188847
v -0.003850 0.145892 -3.829784
v -0.182546 0.198438 -4.098094
v 0.169534 0.197767 -4.053632
v 0.346805 0.145724 -3.829635
v -0.354504 0.146059 -3.829934
v -0.304363 0.250816 -4.213015
v 0.288000 0.380145 -4.524664
v 0.636529 0.536730 -4.838434
v 0.300520 0.249809 -4.188398
v -0.644229 0.537066 -4.838734
v -0.295254 0.381151 -4.502705
v -1.714607 0.035790 1.278325
v -2.633395 -0.018856 1.727912
v -1.714608 0.177783 1.278325
v -2.633395 0.195230 1.727912
v -2.252427 0.093681 1.280954
v -1.461930 0.110431 0.981879
v -2.471133 0.303626 1.506206
v -1.606987 0.249677 1.131278
v 2.571445 -0.018856 1.729981
v 1.654591 0.035790 1.278325
v 2.571444 0.195230 1.729981
v 1.654591 0.177783 1.278325
v 1.401913 0.110431 0.981879
v 2.190476 0.093681 1.283024
v 1.546970 0.249677 1.131278
v 2.409183 0.303626 1.508276
vt 0.962702 0.677942
vt 0.943685 0.677942
vt 0.943685 0.114107
vt 0.962702 0.114107
vt 0.476744 0.027565
vt 0.476744 0.527992
vt 0.462334 0.543133
vt 0.462334 0.005670
vt 0.885318 0.350332
vt 0.864657 0.283988
vt 0.962088 0.243413
vt 0.981509 0.268766
vt 0.885364 0.034217
vt 0.501816 0.034174
vt 0.482383 0.021895
vt 0.904785 0.021943
vt 0.712457 0.257637
vt 0.726867 0.242496
vt 0.826377 0.325795
vt 0.811980 0.340976
vt 0.593458 0.051727
vt 0.593467 0.046897
vt 0.690898 0.088813
vt 0.689598 0.136247
vt 0.467973 0.000001
vt 0.919202 0.000051
vt 0.400206 0.482560
vt 0.359848 0.580539
vt 0.262417 0.621114
vt 0.148187 0.621101
vt 0.047329 0.579076
vt 0.005553 0.477643
vt 0.005553 0.014844
vt 0.011191 0.009174
vt 0.394739 0.009217
vt 0.400206 0.014716
vt 0.981351 0.508825
vt 0.981351 0.023318
vt 1.000000 0.000000
vt 1.000000 0.524981
vt 0.962702 0.512724
vt 0.962702 0.021923
vt 0.981351 0.005767
vt 0.981351 0.536043
vt 0.943685 0.110231
vt 0.924668 0.110231
vt 0.924668 0.000000
vt 0.943685 0.000000
vt 0.872810 0.088836
vt 0.874136 0.136345
vt 0.225775 0.809405
vt 0.209212 0.809392
vt 0.209142 0.770337
vt 0.225722 0.772950
vt 0.242303 0.775562
vt 0.242338 0.809419
vt 0.869895 0.630892
vt 0.850473 0.605539
vt 0.890831 0.507560
vt 0.910252 0.532914
vt 0.924668 0.548058
vt 0.884311 0.646037
vt 0.968215 0.370126
vt 0.968215 0.663183
vt 0.946991 0.642846
vt 0.946991 0.390476
vt 0.661135 0.726254
vt 0.563704 0.684338
vt 0.523346 0.583167
vt 0.523346 0.023038
vt 0.528813 0.017363
vt 0.980042 0.017418
vt 0.985680 0.023273
vt 0.985680 0.578192
vt 0.943904 0.682910
vt 0.843046 0.726276
vt 0.943685 0.000000
vt 0.962702 0.000000
vt 0.746301 0.217147
vt 0.847158 0.259172
vt 0.496178 0.502643
vt 0.537954 0.604076
vt 0.518521 0.629425
vt 0.504111 0.644566
vt 0.973668 0.045470
vt 0.973659 0.050300
vt 0.943685 0.679359
vt 0.924668 0.679359
vt 0.820811 0.410511
vt 0.798810 0.394588
vt 0.805320 0.340976
vt 0.820811 0.352572
vt 0.820811 0.356792
vt 0.842888 0.340976
vt 0.842888 0.398896
vt 0.826924 0.410163
vt 0.927849 0.204045
vt 0.635818 0.204010
vt 0.686133 0.410065
vt 0.686150 0.467148
vt 0.670681 0.467161
vt 0.670681 0.404069
vt 0.995925 0.283911
vt 0.899785 0.365752
vt 0.225828 0.845861
vt 0.209283 0.848447
vt 0.242373 0.843275
vt 0.782229 0.435891
vt 0.782247 0.467148
vt 0.765684 0.467135
vt 0.765649 0.433279
vt 0.782265 0.498406
vt 0.765720 0.500992
vt 0.798810 0.467162
vt 0.798810 0.495820
vt 0.798810 0.438504
vt 0.193743 0.809405
vt 0.178273 0.809418
vt 0.178238 0.758345
vt 0.193690 0.764341
vt 0.686168 0.524231
vt 0.670681 0.530253
vt 0.701620 0.467135
vt 0.701655 0.518209
vt 0.701584 0.416061
vt 0.749069 0.430666
vt 0.732488 0.428054
vt 0.717036 0.422058
vt 0.670681 0.340976
vt 0.686115 0.352982
vt 0.701549 0.364988
vt 0.716983 0.376993
vt 0.732417 0.388999
vt 0.749016 0.394211
vt 0.765614 0.399422
vt 0.782212 0.404634
vt 0.798810 0.409846
vt 0.749228 0.540034
vt 0.732700 0.545219
vt 0.717195 0.557251
vt 0.701690 0.569283
vt 0.686185 0.581314
vt 0.670681 0.593346
vt 0.717142 0.512186
vt 0.732629 0.506164
vt 0.749175 0.503578
vt 0.798810 0.524477
vt 0.782282 0.529663
vt 0.765755 0.534848
vt 0.962702 0.683891
vt 0.943685 0.683891
vt 0.998185 0.529358
vt 0.981351 0.514774
vt 0.910252 0.027441
vt 0.924668 0.005550
vt 0.771718 0.595183
vt 0.790735 0.595183
vt 0.790735 0.600670
vt 0.771718 0.600669
vt 0.908233 0.023219
vt 0.890831 0.034218
vt 0.934593 0.500932
vt 0.915576 0.500932
vt 0.915576 0.048118
vt 0.934593 0.048118
vt 0.193796 0.854470
vt 0.178309 0.860492
vn -1.0000 -0.0000 -0.0000
vn -0.5555 0.8315 -0.0000
vn -0.2095 0.9272 0.3105
vn 0.0000 0.7315 -0.6818
vn -0.2467 0.9284 -0.2780
vn 0.3995 -0.6982 -0.5941
vn -0.0000 0.8984 0.4392
vn 0.0000 1.0000 -0.0032
vn 0.6925 0.7214 0.0000
vn -0.6925 0.7214 -0.0000
vn 0.9344 0.0769 -0.3478
vn 0.0008 -0.9184 -0.3956
vn -0.4019 0.7059 0.5832
vn -0.5623 0.8020 0.2015
vn 0.4049 0.9028 -0.1451
vn 0.0000 0.8984 -0.4392
vn -0.0000 -1.0000 0.0087
vn -0.9325 -0.0000 -0.3611
vn 0.2078 0.9268 0.3127
vn 0.5527 0.8054 0.2141
vn -0.3956 0.9056 -0.1532
vn -0.3947 -0.7028 -0.5919
vn 1.0000 0.0000 0.0000
vn 0.7788 -0.1041 0.6186
vn -0.7784 -0.1040 0.6191
vn 0.0006 -0.9363 -0.3513
vn 0.0001 0.8951 0.4459
vn 0.2431 0.9317 -0.2699
vn 0.3617 0.7432 0.5630
vn -0.0351 0.9761 0.2146
vn 0.0213 0.9702 0.2413
vn 0.0002 0.9603 0.2790
vn 0.0002 0.9601 0.2795
vn -0.3492 0.9366 0.0278
vn 0.0001 0.8949 0.4463
vn -0.0233 0.9406 0.3388
vn 0.0278 0.9451 0.3256
vn -0.0027 0.9229 0.3851
vn 0.1347 0.7131 0.6880
vn 0.4395 0.0000 0.8982
vn -0.3107 0.5259 -0.7918
vn 0.3019 0.7505 0.5879
vn 0.5555 0.8315 0.0000
vn -0.4419 -0.0000 0.8971
vn 0.3137 0.5233 -0.7923
vn -0.3043 0.7488 0.5888
vn -0.0000 -0.0000 1.0000
vn 0.3613 0.9324 0.0092
usemtl Material.005
s off
f 75/1/1 77/2/1 14/3/1 11/4/1
f 80/5/2 19/6/2 14/7/2 77/8/2
f 24/9/3 7/10/3 8/11/3 10/12/3
f 86/13/4 79/14/4 81/15/4 88/16/4
f 15/17/5 20/18/5 28/19/5 26/20/5
f 5/21/6 3/22/6 1/23/6 22/24/6
f 88/16/7 81/15/7 76/25/7 85/26/7
f 6/27/8 8/28/8 7/29/8 16/30/8 18/31/8 17/32/8 78/33/8 79/34/8 86/35/8 87/36/8
f 78/37/9 17/38/9 19/39/9 80/40/9
f 6/41/10 87/42/10 89/43/10 9/44/10
f 4/45/11 2/46/11 3/47/11 5/48/11
f 22/24/12 1/23/12 12/49/12 26/50/12
f 62/51/13 38/52/13 54/53/13 68/54/13 64/55/13 43/56/13
f 10/57/14 8/58/14 6/59/14 9/60/14
f 9/60/15 4/61/15 5/62/15 10/57/15
f 21/63/16 25/64/16 27/65/16 23/66/16
f 1/67/17 3/68/17 2/69/17 82/70/17 83/71/17 74/72/17 75/73/17 11/74/17 13/75/17 12/76/17
f 11/4/18 14/3/18 15/77/18 13/78/18
f 20/18/19 18/79/19 16/80/19 28/19/19
f 19/6/20 17/81/20 18/82/20 20/83/20
f 14/7/21 19/6/21 20/83/21 15/84/21
f 13/85/22 15/86/22 26/50/22 12/49/22
f 2/46/23 4/45/23 84/87/23 82/88/23
f 21/89/24 23/90/24 24/91/24 22/92/24
f 27/93/25 25/94/25 26/95/25 28/96/25
f 25/97/26 21/98/26 22/24/26 26/50/26
f 72/99/27 58/100/27 39/101/27 49/102/27
f 10/12/28 5/103/28 22/104/28 24/9/28
f 71/105/29 48/106/29 38/52/29 62/51/29 43/56/29 65/107/29
f 67/108/30 63/109/30 43/110/30 64/111/30
f 63/109/31 66/112/31 65/113/31 43/110/31
f 35/114/32 45/115/32 66/112/32 63/109/32
f 44/116/33 35/114/33 63/109/33 67/108/33
f 59/117/34 42/118/34 60/119/34 73/120/34 54/53/34 38/52/34
f 58/100/35 70/121/35 55/122/35 39/101/35
f 42/123/36 61/124/36 70/121/36 58/100/36
f 60/125/37 42/123/37 58/100/37 72/99/37
f 67/108/38 64/111/38 68/126/38 54/127/38 73/128/38 60/125/38 72/99/38 49/102/38 33/129/38 47/130/38 37/131/38 53/132/38 34/133/38 57/134/38 41/135/38 51/136/38 30/137/38 44/116/38
f 56/138/39 32/139/39 46/140/39 36/141/39 52/142/39 31/143/39 55/122/39 70/121/39 61/124/39 69/144/39 48/145/39 71/146/39 65/113/39 66/112/39 45/115/39 29/147/39 50/148/39 40/149/39
f 77/2/40 75/1/40 74/150/40 76/151/40
f 78/37/41 80/40/41 81/152/41 79/153/41
f 80/5/42 77/8/42 76/25/42 81/15/42
f 9/60/43 89/154/43 84/155/43 4/61/43
f 85/156/44 83/157/44 82/158/44 84/159/44
f 86/13/45 88/16/45 89/160/45 87/161/45
f 88/16/46 85/26/46 84/155/46 89/154/46
f 83/162/47 85/163/47 76/164/47 74/165/47
f 69/166/48 61/167/48 42/118/48 59/117/48 38/52/48 48/106/48
