# Blender v2.79 (sub 0) OBJ File: 'Player.blend'
# www.blender.org
mtllib PlayerArt.mtl
o PlayerArt_Cube.001
v 2.190477 0.093681 -1.896554
v 0.639291 0.093681 -3.650253
v 1.736145 0.093681 -3.164334
v -0.646687 0.093681 -3.650253
v -2.252426 0.093681 -1.932878
v -1.782116 0.093681 -3.147246
v -2.252427 0.093681 1.280954
v -1.461930 0.110431 0.981879
v 1.401913 0.110431 0.981879
v 2.190476 0.093681 1.283024
vt 0.407704 0.462251
vt 0.365850 0.575261
vt 0.264804 0.616629
vt 0.146336 0.613916
vt 0.041736 0.566302
vt -0.001590 0.456143
vt -0.001590 0.167233
vt 0.071112 0.196236
vt 0.334938 0.202278
vt 0.407704 0.176421
vn 0.0000 1.0000 -0.0032
usemtl None
s off
f 1/1/1 3/2/1 2/3/1 4/4/1 6/5/1 5/6/1 7/7/1 8/8/1 9/9/1 10/10/1
